<svg xmlns="http://www.w3.org/2000/svg" version="1.1" xmlns:xlink="http://www.w3.org/1999/xlink" viewBox="0 0 7.291459763737522 6.221675473276785"><g transform="matrix(0.8467433532375609,0,0,0.8467433532375609,2.6700554288191345,2.253967135708259)"><g><path d=" M -1.2570881854913274 1.5463615348499695 Q -1.28385673002213 1.5442025477067325 -1.3062331646448806 1.5392136669501735 Q -1.3286095992676312 1.5342247861936145 -1.354381136936745 1.5257779428366103 L -1.3464910202860056 1.4279510800967679 L -1.3060948530849763 1.431209187967471 Q -1.2725124972190602 1.4339177354744412 -1.2463836926581502 1.4318612571122549 Q -1.22025488809724 1.4298047787500683 -1.2017248494669233 1.4217468953387502 Q -1.1831948108366066 1.4136890119274321 -1.1729150807279691 1.3985974403801376 Q -1.1626353506193319 1.383505868832843 -1.1607903979696566 1.3606309307792481 Q -1.1578855789042102 1.3246150708650772 -1.1760660435389605 1.3040439396650336 Q -1.1942465081737106 1.2834728084649898 -1.232209171326485 1.2804109721527626 Q -1.2516772037125234 1.2788407996849538 -1.2681975795501543 1.2802026346962443 Q -1.284717955387785 1.2815644697075346 -1.301309015314152 1.2868395383518803 Q -1.317900075240519 1.292114606996226 -1.336567503961769 1.3018759432413223 Q -1.355234932683019 1.3116372794864188 -1.3785496243383402 1.3273920646075683 L -1.5453792483940068 1.446200649159161 Q -1.5929820333239506 1.4776317107780697 -1.6400194771824288 1.492942764210954 Q -1.6870569210409068 1.5082538176438383 -1.738647206863908 1.5040928606041448 Q -1.7800167756842393 1.5007562441100513 -1.813532293909534 1.4850716165239402 Q -1.8470478121348286 1.469386988937829 -1.870150188247092 1.4430303514029774 Q -1.8932525643593552 1.4166737138681258 -1.9042383455248086 1.3797824564754668 Q -1.9152241266902625 1.3428911990828076 -1.9115734757026068 1.2976280237852686 Q -1.907137738481047 1.2426308322947104 -1.8885996120392274 1.2071410591403102 Q -1.8700614855974076 1.17165128598591 -1.842986599469273 1.1517909737597685 Q -1.8159117133411382 1.1319306615336269 -1.78379330635229 1.1254585996594257 Q -1.7516748993634415 1.1189865377852248 -1.7200393467361295 1.1215380680454141 Q -1.6932708022053267 1.1236970551886514 -1.6709728762059668 1.129659337564512 Q -1.6486749502066065 1.135621619940373 -1.6218515022948004 1.1431735703014658 L -1.6297023646338444 1.2405137322316573 L -1.6691251302155719 1.2373341329843444 Q -1.735316440328102 1.2319955465937944 -1.77213316718391 1.2481309405722785 Q -1.808949894039718 1.2642663345507623 -1.8124042734688974 1.3070960058000463 Q -1.8152698382226484 1.3426251649045662 -1.7969716106528126 1.3617361936756571 Q -1.7786733830829768 1.3808472224467478 -1.7455777280267117 1.383516515642023 Q -1.7280564988792773 1.384929670863051 -1.7137262766850758 1.383391191449132 Q -1.6993960544908744 1.381852712035213 -1.6870597143816262 1.377704084170411 Q -1.6747233742723777 1.3735554563056087 -1.6629404409749777 1.3671577933298344 Q -1.6511575076775773 1.3607601303540602 -1.6382441555140943 1.3524941727630726 L -1.4492695129808846 1.2202857985151947 Q -1.393973672789224 1.1845765434752047 -1.3443064533240152 1.167028257552542 Q -1.2946392338588062 1.149479971629879 -1.241102144797201 1.1537979459163532 Q -1.1968123711189638 1.1573700882806182 -1.1624019598977577 1.1741066261094215 Q -1.1279915486765517 1.1908431639382249 -1.1052502859041995 1.2186402767461817 Q -1.0825090231318475 1.2464373895541387 -1.0720688242435876 1.2840194438495791 Q -1.0616286253553278 1.3216014981450193 -1.0653185306546784 1.3673513742522094 Q -1.069872030811324 1.4238086681717204 -1.0879627107551881 1.4598243964474666 Q -1.1060533906990522 1.4958401247232131 -1.1326612031733834 1.5159830416658755 Q -1.1592690156477148 1.5361259586085376 -1.1916307730413884 1.542578393326891 Q -1.2239925304350623 1.5490308280452445 -1.2570881854913274 1.5463615348499695 M -1.8274625404813438 0.7944956005729858 L -1.7883736959986756 0.6731969020474562 L -1.2065117398532232 0.8607035430141252 Q -1.1693320621442487 0.8726847980279699 -1.1435024001606684 0.8769044117037446 Q -1.1176727381770883 0.8811240253795192 -1.1004123405449011 0.8777085900423823 Q -1.0831519429127139 0.8742931547052455 -1.0727593158883153 0.8635344772763718 Q -1.0623666888639167 0.8527757998474981 -1.0566755927323406 0.8351154529357351 Q -1.0509844966007642 0.8174551060239721 -1.0529902451154716 0.8021880090565636 Q -1.054995993630179 0.7869209120891552 -1.066864826506136 0.7736054924572535 Q -1.0787336593820933 0.7602900728253517 -1.101942421831395 0.7479374046507389 Q -1.1251511842806965 0.7355847364761261 -1.162330861989671 0.7236034814622814 L -1.7441928181351234 0.5360968404956125 L -1.7055532707154744 0.41619237988416935 L -1.1557587865940127 0.5933651884013974 Q -1.0976655401737399 0.6120858993605296 -1.0592984624759667 0.6347099649906754 Q -1.0209313847781936 0.6573340306208213 -0.9979888941896736 0.6816565889361568 Q -0.9750464036011536 0.7059791472514922 -0.9651453363295822 0.7309726501029421 Q -0.9552442690580107 0.755966152954392 -0.9534608073769346 0.7798827598733228 Q -0.9516773456958584 0.8037993667922536 -0.956093071784335 0.8254617639419172 Q -0.9605087978728117 0.8471241610915807 -0.9660501283167149 0.8643197620319814 Q -0.971591458760618 0.8815153629723822 -0.9805797617188801 0.901447730259634 Q -0.9895680646771421 0.9213800975468858 -1.00490532109263 0.9395230010362324 Q -1.020242577508118 0.9576659045255791 -1.042798845388063 0.9719434362542337 Q -1.0653551132680077 0.9862209679828884 -1.0981821392429496 0.9925716437774569 Q -1.1310091652178915 0.9989223195720254 -1.1750596145930692 0.9947306026545223 Q -1.219110063968247 0.9905388857370192 -1.277668056359882 0.9716684090902138 L -1.8274625404813438 0.7944956005729858 M -1.55623603057244 0.09808338808883094 L -1.4905819367143125 -0.010004061064065928 Q -1.4781608919303424 -0.030453037930830207 -1.4614537181392668 -0.05372590415894951 Q -1.4447465443481917 -0.07699877038706882 -1.4230314578550516 -0.09722974809666485 Q -1.4013163713619115 -0.11746072580626077 -1.3733120416844349 -0.13158631185898872 Q -1.345307712006958 -0.14571189791171668 -1.310247527769561 -0.14841038584114208 Q -1.2751873435321641 -0.1511088737705676 -1.2319986372818275 -0.13944350579328435 Q -1.1888099310314908 -0.127778137816001 -1.1362268476598112 -0.09583830837150642 L -1.1111872841494876 -0.08062886577888995 Q -1.0540136141342487 -0.045900638525748994 -1.019281355112081 -0.011378131937870517 Q -0.9845490960899133 0.02314437465000796 -0.9666830508845053 0.05627722313853489 Q -0.9488170056790974 0.08941007162706183 -0.9451787348975441 0.12104199203516719 Q -0.9415404641159908 0.1526739124432726 -0.9470540143148005 0.18103206824279922 Q -0.9525675645136101 0.20939022404232588 -0.9641771702413723 0.23461683596208072 Q -0.9757867759691344 0.25984344788183555 -0.9884613114629814 0.2807097508071052 L -0.994798579209905 0.29114290226974004 L -0.7777890287871004 0.42295807140574937 L -0.8434431226452281 0.5310455205586463 L -1.55623603057244 0.09808338808883094 M -1.0707951510975295 0.2375544286325511 Q -1.0530508014061435 0.20834160453717354 -1.049438431531411 0.1831133941764374 Q -1.0458260616566784 0.15788518381570127 -1.0567552599701702 0.1349645452686506 Q -1.067684458283662 0.11204390672159992 -1.0931026594178197 0.08946321736371199 Q -1.1185208605519774 0.06688252800582417 -1.1585841621684951 0.04254741985763788 L -1.2228523751783258 0.003509850536588921 Q -1.2545691556247356 -0.015755443414058545 -1.2805191496804313 -0.025233591168669522 Q -1.3064691437361269 -0.0347117389232805 -1.328717367073814 -0.03194361181144667 Q -1.350965590411501 -0.02917548469961273 -1.3704363505094386 -0.013579921314200383 Q -1.3899071106073762 0.002015642071212076 -1.4084119324283928 0.03248044434210584 L -1.411707311656793 0.03790568310267595 L -1.0740905303259296 0.24297966739312127 L -1.0707951510975295 0.2375544286325511 M -1.1790886604124724 -0.4504567311685448 L -0.9681613697486964 -0.6763801254748116 L -0.8953519346168191 -0.6084035578675283 L -1.0199756418968384 -0.4749195934590863 L -0.8375951450714002 -0.304644955972215 L -0.7412950076277489 -0.40779165574237475 L -0.6684855724958714 -0.33981508813509154 L -0.7647857099395227 -0.23666838836493176 L -0.5559939474289918 -0.04173558419698714 L -0.4280380554623409 -0.17878863856287414 L -0.35522862033046343 -0.11081207095559087 L -0.569488095680871 0.11868041330812093 L -1.1790886604124724 -0.4504567311685448 M -0.7495123055155947 -0.8666038862601749 L -0.6368361458452122 -0.9448972606054729 Q -0.6175889726630829 -0.9582712177890114 -0.5934179666900288 -0.9726881728999477 Q -0.5692469607169748 -0.9871051280108839 -0.5418717775020314 -0.9969107812136018 Q -0.5144965942870879 -1.0067164344163195 -0.48440666849680436 -1.0091923581803466 Q -0.4543167427065207 -1.0116682819443736 -0.4226302557279906 -1.001578112596079 Q -0.3909437687494605 -0.9914879432477843 -0.3582113345825518 -0.9657734498153868 Q -0.32547890041564304 -0.9400589563829893 -0.29315850388875847 -0.8935449545261767 L -0.28117766724517196 -0.8763026952171857 Q -0.22684596618704705 -0.7981110541647851 -0.2151695483373759 -0.7333877142254308 Q -0.2034931304877048 -0.6686643742860766 -0.23215455109064284 -0.6166412766852293 L 0.06801499491477814 -0.41911304720387854 L -0.041854285333210395 -0.3427700416145133 L -0.31091818017955275 -0.5357503620877934 L -0.34981350931843924 -0.5087238236127261 L -0.1717727043125837 -0.25249583062562875 L -0.2736223290680183 -0.18172530719607116 L -0.7495123055155947 -0.8666038862601749 M -0.386277889302161 -0.5945739426797302 Q -0.3590110606274777 -0.6135203820230763 -0.34434423183983176 -0.6326304567180399 Q -0.32967740305218585 -0.6517405314130033 -0.3279400584216413 -0.6740555190440076 Q -0.32620271379109683 -0.6963705066750119 -0.33728944803837424 -0.7234501123946071 Q -0.3483761822856517 -0.7505297181142023 -0.3723378555728247 -0.7850142367321841 L -0.4099521101515266 -0.839146911306923 Q -0.428341301278892 -0.8656117744323508 -0.44652705175796276 -0.8815154583185957 Q -0.46471280223703354 -0.8974191422048403 -0.48477815866162477 -0.901908821140573 Q -0.5048435150862159 -0.9063985000763056 -0.5278690671135734 -0.899317908620173 Q -0.5508946191409309 -0.8922373171640403 -0.5793643961394973 -0.8724550054967231 L -0.5950027243499774 -0.861588665285098 L -0.4019162175126411 -0.5837076024681052 L -0.386277889302161 -0.5945739426797302 M -0.10161540685928996 -1.2663161345161202 L 0.054632459007149886 -1.3194621274324438 L 0.23437846882900218 -1.0396872857181254 Q 0.2636935686317331 -0.9929255418439125 0.2862726937298716 -0.9492880484712323 Q 0.30885181882801005 -0.9056505550985521 0.3291604504811658 -0.8671719506742379 L 0.3328586248211999 -0.8684298439977012 Q 0.32549360335816335 -0.9113110750541368 0.3167826320351527 -0.9596656683898043 Q 0.3080716607121421 -1.0080202617254717 0.30279469411963267 -1.0629583122021962 L 0.2769851912016989 -1.3950929635056737 L 0.4299971545206089 -1.447138299763967 L 0.6985573790800197 -0.6575780781666911 L 0.5866876052939889 -0.6195268051319268 L 0.49784888932439453 -0.8807103678968337 Q 0.4774081228181162 -0.9408057009223875 0.45969540244742757 -0.9966714076864809 Q 0.441982682076739 -1.0525371144505744 0.42802948437074856 -1.0996243762589841 Q 0.4140762866647581 -1.1467116380673938 0.40428042238894535 -1.1830927494173866 Q 0.3944845581131325 -1.219473860767379 0.38925799533866856 -1.2409050380918023 L 0.38047483128108767 -1.237917541448577 L 0.4365275907726836 -0.6819174331246365 L 0.360715016801985 -0.6561306199936392 L 0.0652054687931824 -1.1306821356233323 L 0.05642230473560145 -1.127694638980107 Q 0.06534704185009943 -1.107521354979147 0.07976562405095483 -1.0727126102834834 Q 0.09418420625181026 -1.03790386558782 0.11183557829783478 -0.9920744971028735 Q 0.1294869503438593 -0.946245128617927 0.1495110296770692 -0.8911656051809981 Q 0.16953510901027907 -0.8360860817440692 0.1899758755165574 -0.7759907487185154 L 0.27881459148615173 -0.5148071859536085 L 0.16694481770012085 -0.4767559129188442 L -0.10161540685928996 -1.2663161345161202 M 0.9028831124776551 -1.5108098734132975 L 1.0481519174647447 -1.519146407234862 L 1.2499765555290143 -0.6953719970659535 L 1.1222570021511034 -0.6880425612899473 L 1.090785145829654 -0.835896377519598 L 0.9386916318834393 -0.8271681944580942 L 0.9253154007592099 -0.6767406832231284 L 0.7971083681699329 -0.6693832725014122 L 0.9028831124776551 -1.5108098734132975 M 1.0707056550752319 -0.9301155753646837 L 0.9884014709121377 -1.3416033907520175 L 0.983039199587111 -1.3412956663492082 L 0.9478608938109816 -0.9230658890457768 L 1.0707056550752319 -0.9301155753646837 M 1.4884941212805336 -1.5070234325337957 L 1.6237206692176052 -1.4837952135434944 Q 1.6468198660182436 -1.4798274038939057 1.6741601280482095 -1.4731493655177823 Q 1.7015003900781753 -1.4664713271416592 1.7278900310462606 -1.4542591061987165 Q 1.7542796720143456 -1.4420468852557735 1.7774631080496979 -1.4227061994834234 Q 1.80064654408505 -1.4033655137110737 1.8161539387964813 -1.3739484152174817 Q 1.8316613335079128 -1.3445313167238893 1.8369551550407142 -1.3032442379636444 Q 1.8422489765735157 -1.2619571592033993 1.832660103253676 -1.2061341002685229 L 1.8291056071092526 -1.1854410698012843 Q 1.812986380407798 -1.09160058279869 1.7759111365971647 -1.0372786188882475 Q 1.7388358927865315 -0.9829566549778049 1.6819176808626275 -0.9659802929896946 L 1.757316971127331 -0.6146483917642057 L 1.6254590560570195 -0.6372979718472754 L 1.569040570480818 -0.9635704623902899 L 1.522360943612861 -0.9715887443905007 L 1.4695394776527093 -0.6640806869820002 L 1.347306227915997 -0.6850770130444078 L 1.4884941212805336 -1.5070234325337957 M 1.5565869661065697 -1.0583555199193642 Q 1.5893108282408075 -1.0527344562491132 1.6131687322902626 -1.056067808300757 Q 1.6370266363397177 -1.0594011603524007 1.653916926960112 -1.0740877229895798 Q 1.670807217580506 -1.0887742856267586 1.681899018057782 -1.1158518166141067 Q 1.6929908185350582 -1.1429293476014546 1.7000998108239047 -1.184315408535932 L 1.7112592754633735 -1.2492818995377277 Q 1.716715013731558 -1.281043295138606 1.7149080241809873 -1.3051344443516415 Q 1.7131010346304165 -1.3292255935646773 1.7019484302620635 -1.3464997118111997 Q 1.6907958258937106 -1.3637738300577222 1.6694178028752487 -1.3748774760064775 Q 1.6480397798567865 -1.3859811219552327 1.6138722179225087 -1.3918501737285829 L 1.5951041205219898 -1.3950740190688737 L 1.5378188687060508 -1.061579365259655 L 1.5565869661065697 -1.0583555199193642 M 2.0263661378879907 -0.49952969742769093 Q 2.008332537383287 -0.5070302960304198 1.9885873240695127 -0.5186802019881064 Q 1.9688421107557383 -0.5303301079457929 1.9518158644354533 -0.5485171940864345 Q 1.934789618115168 -0.5667042802270762 1.922848243734047 -0.5920310067282527 Q 1.910906869352926 -0.6173577332294291 1.9080680117421525 -0.6518548903890543 Q 1.9052291541313786 -0.6863520475486795 1.9137829081541462 -0.7317112905346367 Q 1.9223366621769138 -0.7770705335205939 1.946338577705646 -0.834778055135645 L 2.0597851315719193 -1.1075362627692855 Q 2.08397456206572 -1.1656946243969544 2.110148981621814 -1.203196186250099 Q 2.1363234011779078 -1.240697748103244 2.1629208069110524 -1.2626872550445918 Q 2.1895182126441965 -1.2846767619859398 2.215842386894277 -1.293294698954857 Q 2.2421665611443573 -1.3019126359237743 2.2665617435435967 -1.302078327776679 Q 2.2909569259428357 -1.302244019629584 2.312595236307345 -1.2964171287946853 Q 2.334233546671855 -1.290590237959787 2.351816307163941 -1.2832771543221262 Q 2.3978019884509347 -1.2641506278851677 2.4233403528107953 -1.238456912418393 Q 2.448878717170656 -1.2127631969516188 2.458306586923409 -1.1826647452767172 Q 2.467734456676162 -1.1525662936018155 2.463248169202467 -1.1195293408803608 Q 2.458761881728772 -1.0864923881589061 2.4448857743137236 -1.0531302272252048 Q 2.4345724512349713 -1.0283340265312373 2.4233733852899024 -1.0084012982523949 Q 2.4121743193448335 -0.9884685699735521 2.3967142411622198 -0.9652841938827177 L 2.3020378385125264 -1.0046623365470442 L 2.3183516404734617 -1.0438854176447743 Q 2.344791250548081 -1.1074538594238539 2.3439412577117107 -1.1448256242241999 Q 2.3430912648753415 -1.1821973890245459 2.316040864118286 -1.1934482869286391 Q 2.2998106236640528 -1.2001988256710951 2.285012733812423 -1.1989499695512909 Q 2.270214843960793 -1.1977011134314866 2.255817972403891 -1.1859732423800255 Q 2.241421100846989 -1.1742453713285643 2.2268247976483697 -1.151230562802745 Q 2.2122284944497506 -1.1282157542769258 2.1968522673141564 -1.0912468732422838 L 2.050590594560944 -0.7395916634005654 Q 2.0355893973554866 -0.7035244623911584 2.0290324043015024 -0.6782235794844146 Q 2.0224754112475187 -0.6529226965776708 2.0241392125798345 -0.6353080617677482 Q 2.025803013912151 -0.6176934269578257 2.0356696622307133 -0.6064504252481122 Q 2.045536310549276 -0.5952074235383987 2.063119071041362 -0.587894339900738 Q 2.0743900713568015 -0.5832064657740326 2.0869158137452906 -0.5840782817225657 Q 2.0994415561337796 -0.5849500976710988 2.111925372998759 -0.5927141660915359 Q 2.124409189863738 -0.6004782345119729 2.136174821186281 -0.6154158278519162 Q 2.147940452508824 -0.6303534211918593 2.1575037157273034 -0.6533462618353564 L 2.188818714893696 -0.7286365439424934 L 2.2956677978840645 -0.6841954972213251 L 2.2660404334032855 -0.6129627752277462 Q 2.227412350599232 -0.5200897326285232 2.166656922836493 -0.49353381810841246 Q 2.1059014950737542 -0.4669779035883016 2.0263661378879907 -0.49952969742769093 M 2.783909918068554 -1.0570528747131678 L 2.8863964057797893 -0.9829591736224089 L 2.6818520185987365 -0.7000331554234389 L 2.8033321410981547 -0.6122078031652807 L 3.007876528279207 -0.8951338213642507 L 3.1103630159904423 -0.8210401202734918 L 2.621745095283816 -0.14518328239399408 L 2.519258607572581 -0.21927698348475302 L 2.7449726236367074 -0.5314848553155046 L 2.6234925011372896 -0.6193102075736628 L 2.3977784850731627 -0.3071023357429113 L 2.2952919973619275 -0.3811960368336702 L 2.783909918068554 -1.0570528747131678 M 3.359789290533092 -0.584762077724225 L 3.564662249089693 -0.35333439378409787 L 3.49007891966823 -0.2873089853393166 L 3.3690323375194646 -0.42404508927866497 L 3.18220840940982 -0.2586579142037472 L 3.2757444047065936 -0.1529981975233416 L 3.201161075285131 -0.08697278907856032 L 3.1076250799883574 -0.1926325057589659 L 2.893746414735633 -0.003294937424666633 L 3.018029536514045 0.13709721207455738 L 2.9434462070925824 0.20312262051933866 L 2.7353367089063356 -0.03196110898066404 L 3.359789290533092 -0.584762077724225 M 3.3773574717297867 0.06850516368726617 L 3.557393375261261 0.3845990505396545 L 3.4712630946826906 0.43365581351534477 L 3.2912271911512168 0.1175619266629564 L 3.3773574717297867 0.06850516368726617 M 3.959819295141584 0.5894510689622391 L 3.9192493922848546 0.46144916262193814 L 4.014203533715477 0.43135367104821876 L 4.133405284654523 0.8074465449499032 L 4.0384511432239 0.8375420365236226 L 3.998028767286649 0.7100055916609227 L 3.2979747049746027 0.9318860785573633 L 3.2597652328295377 0.8113315558586797 L 3.959819295141584 0.5894510689622391 M 4.187831506199218 1.084634257323704 L 4.200237840869875 1.2212792436366973 Q 4.20235707241504 1.244620735960625 4.202950610843193 1.2727585012690938 Q 4.2035441492713455 1.3008962665775625 4.198545455163557 1.3295417644437273 Q 4.193546761055768 1.358187262309892 4.180834107422948 1.3855719710021894 Q 4.1681214537901266 1.4129566796944866 4.143694527199132 1.4355214804211938 Q 4.119267600608138 1.458086281147901 4.080739458196243 1.473841586961009 Q 4.042211315784348 1.4895968927741174 3.9858027093348563 1.4947183690082677 L 3.964892622461338 1.4966168472674786 Q 3.8700678098953816 1.5052262254197142 3.8080259395576643 1.4834029398810233 Q 3.7459840692199475 1.4615796543423327 3.714912468721715 1.410959151011725 L 3.394879764266148 1.5743550685555652 L 3.3827824841958276 1.4411140498731447 L 3.683493901575769 1.302515972479552 L 3.6792112878282466 1.2553467067416149 L 3.368477671265959 1.2835589766866329 L 3.3572634043394576 1.160043579805849 L 4.187831506199218 1.084634257323704 M 3.771867727303995 1.2660554963600983 Q 3.77486997199298 1.2991226104856626 3.784239269232182 1.3213155618616441 Q 3.7936085664713843 1.3435085132376257 3.812151914227827 1.3560433165197199 Q 3.830695261984269 1.368578119801814 3.8597166642975385 1.3723169605272072 Q 3.8887380666108076 1.3760558012526003 3.9305582403578447 1.3722588447341784 L 3.996206187518891 1.3662985060134 Q 4.028300739464291 1.3633845626387973 4.051112423901928 1.3554299580126496 Q 4.073924108339564 1.347475353386502 4.087740528402159 1.3322476719462504 Q 4.101556948464753 1.317019990505999 4.106776083928006 1.2935025194142888 Q 4.111995219391258 1.2699850483225787 4.108860522730701 1.2354590909267689 L 4.107138647100254 1.2164941284135777 L 3.770145851673548 1.2470905338469072 L 3.771867727303995 1.2660554963600983" fill="#382d5e" fill-rule="nonzero"></path></g><g transform="matrix(1,0,0,1,0,0)" clip-path="url(#SvgjsClipPath23267)"><g clip-path="url(#SvgjsClipPath23263d08eb610-74fb-4f11-a0d6-e4a2e891f9f2)"><path d=" M 0.24504966092656225 0.8357671904359072 L 0 2.738926600843662 L 0.2647251811469432 2.784836148024551 L 0.4978502843641841 3.0746029003610706 L 0.6618129528673584 0.6837290796420545 Z" fill="#382d5e" transform="matrix(1,0,0,1,0,0)" fill-rule="nonzero"></path></g><g clip-path="url(#SvgjsClipPath23263d08eb610-74fb-4f11-a0d6-e4a2e891f9f2)"><path d=" M 1.2496936479369216 2.062207950839652 L 1.2687729402718362 1.734878841718769 C 1.2693691681573025 1.719973144582117 1.2717540796991669 1.7068561311018629 1.2753314470119637 1.6949315733925412 C 1.2973918787742085 1.625172910793009 1.3647656298318767 1.5798595914975861 1.4398903434006043 1.5870143261231788 C 1.4565847241936545 1.5888030097795773 1.4726828771012388 1.5929766049778398 1.4875885742378914 1.600131339603433 C 1.506667866572806 1.609074757885424 1.5221697915949244 1.6198068598238138 1.5376717166170424 1.6370974685023305 L 2.1613260848145712 2.29712173771329 C 2.1744430982948253 2.3096425233080784 2.1857714281186804 2.3239519925592647 2.19352239062974 2.340050145466849 L 2.19352239062974 2.340050145466849 C 2.2340658868414334 2.3841710089913395 2.3068056888682964 2.3525709310616367 2.3026320936700335 2.2929481425150278 L 2.1953110742861375 0.7982048336515436 L 1.933567032566525 0.7779330855456965 L 1.933567032566525 0.8721370914493386 C 1.9639746547252954 0.9025447136081092 1.981861491289278 0.9448768934762014 1.9800728076328793 0.9919788964280224 C 1.9764954403200827 1.0724696609659443 1.9109103729188128 1.13865095625268 1.8304196083808912 1.143420779336409 C 1.7386005140191134 1.1481906024201378 1.66287957256492 1.0754508003932748 1.66287957256492 0.9848241618024295 C 1.66287957256492 0.9430882098198031 1.6789777254725042 0.9049296251499734 1.705807980318479 0.8763106866476014 L 1.705807980318479 0.76064247686718 L 1.2693691681573016 0.7266574873956131 L 1.2693691681573016 0.8524615712289577 C 1.29858433454514 0.8828691933877282 1.3164711711091228 0.9252013732558205 1.3134900316817926 0.9717071483221755 C 1.30931643648353 1.0516016849746315 1.24373136908226 1.1171867523759011 1.1638368324298038 1.1219565754596297 C 1.0720177380680265 1.1267263985433587 0.995700568728367 1.0539865965164956 0.995700568728367 0.9633599579256502 C 0.995700568728367 0.920431550172092 1.0129911774068836 0.8816767376167962 1.0404176601383237 0.8530577991144238 L 1.0404176601383237 0.7093668787170965 L 0.7291867039250253 0.6849215354129868 L 0.558069300796258 3.091297281154121 L 0.9456174263492155 3.046580189744164 C 1.0720177380680265 3.031674492607512 1.1709915670553972 2.9303157520782768 1.1823198968792528 2.803915440359466 L 1.2496936479369216 2.062207950839652 L 1.2496936479369216 2.062207950839652 Z" fill="#efe0e2" transform="matrix(1,0,0,1,0,0)" fill-rule="nonzero"></path></g><g clip-path="url(#SvgjsClipPath23263d08eb610-74fb-4f11-a0d6-e4a2e891f9f2)"><path d=" M 1.3832486942813258 0.545404210213922 L 1.3832486942813258 0.6777668007873937 L 1.4750677886431032 0.6849215354129867 L 1.4750677886431032 0.545404210213922 C 1.4750677886431032 0.42138881003697565 1.401731758730774 0.3075092839129526 1.2956031951178104 0.24907895113727602 C 1.278312586439294 0.27412052232685175 1.2669842566154381 0.30393191660015617 1.2634068893026418 0.3361282224153249 C 1.3343580076731065 0.3802490859398155 1.3832486942813258 0.4595473947068053 1.3832486942813258 0.545404210213922 Z" fill="#c84449" transform="matrix(1,0,0,1,0,0)" fill-rule="nonzero"></path></g><g clip-path="url(#SvgjsClipPath23263d08eb610-74fb-4f11-a0d6-e4a2e891f9f2)"><path d=" M 0.9432325148073524 0.28127525695244476 C 0.8836097262607431 0.33553199452985877 0.8508171925601086 0.41184916386951814 0.8508171925601086 0.4959172957202367 L 0.8508171925601086 0.6360308488047675 L 0.9426362869218861 0.6431855834303605 L 0.9426362869218861 0.4959172957202366 C 0.9426362869218861 0.4380831908300259 0.964696718684131 0.38561513690901017 1.0052402148958253 0.34924523589557865 C 1.014779861063283 0.34089804549905345 1.0243195072307398 0.3331470829879943 1.0350516091691297 0.3271848041333334 C 1.0380327485964602 0.28962244734896986 1.045187483222053 0.25325254633553834 1.0571120409313748 0.21867132897850522 C 1.014779861063283 0.22999965880236106 0.9760250485079869 0.25146386267914034 0.9432325148073524 0.28127525695244476 Z" fill="#c84449" transform="matrix(1,0,0,1,0,0)" fill-rule="nonzero"></path></g><g clip-path="url(#SvgjsClipPath23263d08eb610-74fb-4f11-a0d6-e4a2e891f9f2)"><path d=" M 1.2049765565269648 0.8912163837842535 L 1.2049765565269648 0.3599773378339685 C 1.2049765565269648 0.28783376369257185 1.232999267143871 0.22284492417676807 1.2830824095230229 0.17693537699587925 C 1.3337617797876402 0.13042960192952435 1.401731758730774 0.10896539805274516 1.4750677886431032 0.1155239047928721 C 1.6294908109788198 0.12983337404405826 1.7558911226976308 0.26756201558672477 1.7558911226976308 0.4219850379224418 L 1.7558911226976308 0.915065499202897 C 1.7362156024772502 0.9317598799959477 1.7236948168824622 0.9568014511855232 1.7236948168824622 0.9842279339169634 C 1.7236948168824622 1.034311076296115 1.764238313094156 1.075450800393275 1.8149176833587732 1.075450800393275 C 1.8650008257379247 1.075450800393275 1.9061405498350847 1.034907304181581 1.9061405498350847 0.9842279339169634 C 1.9061405498350847 0.9550127675291249 1.892427308469365 0.9287787405686171 1.870366876707119 0.9120843597755667 L 1.870366876707119 0.4219850379224417 C 1.870366876707119 0.20972791069651403 1.6980570178074197 0.02131989888923006 1.485799890581492 0.0016443786688491438 C 1.3802675548539947 -0.007895267498608288 1.281293725866624 0.024301038316560504 1.2061690122978965 0.09227101725969464 C 1.1316405266146357 0.16024099620282878 1.0905008025174756 0.2550412299919369 1.0905008025174756 0.3599773378339685 L 1.0905008025174756 0.8912163837842535 C 1.0696328265261625 0.9079107645773041 1.0565158130459085 0.9335485636523457 1.0565158130459085 0.9621675021547181 C 1.0565158130459085 1.0122506445338697 1.0970593092576026 1.0533903686310297 1.1477386795222204 1.0533903686310297 C 1.1978218219013714 1.0533903686310297 1.238961545998532 1.0128468724193356 1.238961545998532 0.9621675021547181 C 1.238365318113066 0.9335485636523457 1.225248304632812 0.9079107645773041 1.2049765565269648 0.8912163837842535 Z" fill="#e37f7c" transform="matrix(1,0,0,1,0,0)" fill-rule="nonzero"></path></g><g clip-path="url(#SvgjsClipPath23263d08eb610-74fb-4f11-a0d6-e4a2e891f9f2)"><path d=" M 2.1011070683824964 2.350782247405239 L 1.828034696839028 2.0622079508396522 L 1.4744715607576377 1.6883730666524146 C 1.4697017376739088 1.6830070156832198 1.4643356867047141 1.678237192599491 1.4583734078500534 1.6740635974012283 C 1.4452563943697994 1.6657164070047032 1.4303506972331472 1.6615428118064404 1.4160412279819607 1.6615428118064404 C 1.38265246639586 1.6615428118064404 1.3504561605806913 1.6824107877977534 1.3391278307568353 1.7175882330402523 C 1.3367429192149713 1.7247429676658457 1.336146691329505 1.7318977022914386 1.336146691329505 1.739052436917032 L 1.3170673989945902 2.062804178725118 L 1.2824861816375572 2.64949241802375 C 1.2753314470119639 2.7007680161738334 1.315874943223658 2.740715284500061 1.361784490404547 2.740715284500061 C 1.3749015038848007 2.740715284500061 1.3886147452505209 2.7371379171872645 1.401731758730775 2.729983182561672 L 1.5746378455159407 2.585099806393412 C 1.592524682079923 2.5707903371422263 1.611007746529372 2.5576733236619718 1.6306832667497528 2.546344993838116 C 1.6563210658247944 2.531439296701464 1.6831513206707687 2.519514738992142 1.7111740312876749 2.5099750928246847 C 1.7117702591731407 2.5099750928246847 1.712366487058607 2.5093788649392184 1.7129627149440725 2.5093788649392184 C 1.7308495515080553 2.503416586084558 1.7493326159575042 2.4992429908862954 1.767815680406953 2.4962618514589643 C 1.7892798842837325 2.4926844841461677 1.8113403160459773 2.49089580048977 1.8334007478082228 2.490299572604304 L 2.0617560279417346 2.490299572604304 C 2.1273410953430045 2.4777787870095156 2.151190210761648 2.3954993388151955 2.1011070683824964 2.350782247405239 Z" fill="#e37f7c" transform="matrix(1,0,0,1,0,0)" fill-rule="nonzero"></path></g></g><g><path d=" M -0.8876999304281501 1.5456486405770602 A 2.0391020273970133 2.0391020273970133 0 0 1 3.1905041243658765 1.5456486405770602 A 2.0391020273970133 2.0391020273970133 0 0 1 -0.8876999304281501 1.5456486405770602 Z M -0.8376999304281503 1.5456486405770602 A 1.9891020273970135 1.9891020273970135 0 0 0 3.1405041243658767 1.5456486405770602 A 1.9891020273970135 1.9891020273970135 0 0 0 -0.8376999304281503 1.5456486405770602 Z" fill="#382d5e" fill-rule="nonzero"></path></g><g transform="matrix(-0.4107168236486548,-0.9117629575563815,0.9117629575563815,-0.4107168236486548,-4.094616366194946,2.1008954930417576)"><g clip-path="url(#SvgjsClipPath23268)"><path d=" M -1.3683913884078203 2.490106381552613 C -1.3035639195567965 2.490106381552613 -1.249865657922233 2.436523002057058 -1.249865657922233 2.371580651067026 C -1.249865657922233 2.3067534433117727 -1.3035639195567965 2.253055312225094 -1.368506270546829 2.253055312225094 C -1.4333338699457379 2.253055312225094 -1.4869171188934076 2.3067534433117727 -1.4869171188934076 2.371580651067026 C -1.4869171188934076 2.436523002057058 -1.4332191183546144 2.490106381552613 -1.3683913884078203 2.490106381552613 Z M -1.3683913884078203 2.4668153333474674 C -1.4211715067655115 2.4668153333474674 -1.4635102747140567 2.4243611610683726 -1.4635102747140567 2.371580651067026 C -1.4635102747140567 2.3188014465445312 -1.4212862583566348 2.276462156404445 -1.368506270546829 2.276462156404445 C -1.315725760545482 2.276462156404445 -1.2732728937452393 2.3188014465445312 -1.2731580116062309 2.371580651067026 C -1.2731580116062309 2.4243611610683726 -1.3156108784064733 2.4668153333474674 -1.3683913884078203 2.4668153333474674 Z" fill="#382d5e" transform="matrix(1,0,0,1,0,0)" fill-rule="nonzero"></path></g></g><g transform="matrix(0.4107168236486548,-0.9117629575563815,-0.9117629575563815,-0.4107168236486548,4.327577407003703,6.6958042143584535)"><g clip-path="url(#SvgjsClipPath23269)"><path d=" M 3.671195582345547 2.490106381552613 C 3.736023051196571 2.490106381552613 3.789721312831134 2.436523002057058 3.789721312831134 2.371580651067026 C 3.789721312831134 2.3067534433117727 3.736023051196571 2.253055312225094 3.6710807002065384 2.253055312225094 C 3.6062531008076295 2.253055312225094 3.5526698518599598 2.3067534433117727 3.5526698518599598 2.371580651067026 C 3.5526698518599598 2.436523002057058 3.6063678523987526 2.490106381552613 3.671195582345547 2.490106381552613 Z M 3.671195582345547 2.4668153333474674 C 3.618415463987856 2.4668153333474674 3.57607669603931 2.4243611610683726 3.57607669603931 2.371580651067026 C 3.57607669603931 2.3188014465445312 3.6183007123967323 2.276462156404445 3.6710807002065384 2.276462156404445 C 3.723861210207885 2.276462156404445 3.766314077008128 2.3188014465445312 3.7664289591471363 2.371580651067026 C 3.7664289591471363 2.4243611610683726 3.723976092346894 2.4668153333474674 3.671195582345547 2.4668153333474674 Z" fill="#382d5e" transform="matrix(1,0,0,1,0,0)" fill-rule="nonzero"></path></g></g></g><defs><clipPath id="SvgjsClipPath23267"><path d=" M 0 0 h 2.3028041939377264 v 3.0912972811541204 h -2.3028041939377264 Z"></path></clipPath><clipPath id="SvgjsClipPath23263d08eb610-74fb-4f11-a0d6-e4a2e891f9f2"><path d=" M 0 0 L 2.3028041939377264 0 L 2.3028041939377264 3.0912972811541204 L 0 3.0912972811541204 Z"></path></clipPath><clipPath id="SvgjsClipPath23268"><path d=" M -1.5511584277397168 2.1843527904965785 h 0.3655340786637931 v 0.3785888671875 h -0.3655340786637931 Z"></path></clipPath><clipPath id="SvgjsClipPath23269"><path d=" M 3.4884285430136504 2.1843527904965785 h 0.3655340786637931 v 0.3785888671875 h -0.3655340786637931 Z"></path></clipPath></defs></svg>